<svg id="SvgjsSvg1039" width="288" height="288" xmlns="http://www.w3.org/2000/svg" version="1.1" xmlns:xlink="http://www.w3.org/1999/xlink" xmlns:svgjs="http://svgjs.com/svgjs"><defs id="SvgjsDefs1040"></defs><g id="SvgjsG1041"><svg xmlns="http://www.w3.org/2000/svg" width="288" height="288" fill="currentColor" class="bi bi-arrow-right-square" viewBox="0 0 16 16"><path fill-rule="evenodd" d="M14 1H2a1 1 0 0 0-1 1v12a1 1 0 0 0 1 1h12a1 1 0 0 0 1-1V2a1 1 0 0 0-1-1zM2 0a2 2 0 0 0-2 2v12a2 2 0 0 0 2 2h12a2 2 0 0 0 2-2V2a2 2 0 0 0-2-2H2z" fill="#2e8171" class="color000 svgShape"></path><path fill-rule="evenodd" d="M7.646 11.354a.5.5 0 0 1 0-.708L10.293 8 7.646 5.354a.5.5 0 1 1 .708-.708l3 3a.5.5 0 0 1 0 .708l-3 3a.5.5 0 0 1-.708 0z" fill="#2e8171" class="color000 svgShape"></path><path fill-rule="evenodd" d="M4.5 8a.5.5 0 0 1 .5-.5h5a.5.5 0 0 1 0 1H5a.5.5 0 0 1-.5-.5z" fill="#2e8171" class="color000 svgShape"></path></svg></g></svg>