<svg id="SvgjsSvg1047" width="288" height="288" xmlns="http://www.w3.org/2000/svg" version="1.1" xmlns:xlink="http://www.w3.org/1999/xlink" xmlns:svgjs="http://svgjs.com/svgjs"><defs id="SvgjsDefs1048"></defs><g id="SvgjsG1049"><svg xmlns="http://www.w3.org/2000/svg" width="288" height="288" fill="currentColor" class="bi bi-patch-plus" viewBox="0 0 16 16"><path fill-rule="evenodd" d="M10.273 2.513l-.921-.944.715-.698.622.637.89-.011a2.89 2.89 0 0 1 2.924 2.924l-.01.89.636.622a2.89 2.89 0 0 1 0 4.134l-.637.622.011.89a2.89 2.89 0 0 1-2.924 2.924l-.89-.01-.622.636a2.89 2.89 0 0 1-4.134 0l-.622-.637-.89.011a2.89 2.89 0 0 1-2.924-2.924l.01-.89-.636-.622a2.89 2.89 0 0 1 0-4.134l.637-.622-.011-.89a2.89 2.89 0 0 1 2.924-2.924l.89.01.622-.636a2.89 2.89 0 0 1 4.134 0l-.715.698a1.89 1.89 0 0 0-2.704 0l-.92.944-1.32-.016a1.89 1.89 0 0 0-1.911 1.912l.016 1.318-.944.921a1.89 1.89 0 0 0 0 2.704l.944.92-.016 1.32a1.89 1.89 0 0 0 1.912 1.911l1.318-.016.921.944a1.89 1.89 0 0 0 2.704 0l.92-.944 1.32.016a1.89 1.89 0 0 0 1.911-1.912l-.016-1.318.944-.921a1.89 1.89 0 0 0 0-2.704l-.944-.92.016-1.32a1.89 1.89 0 0 0-1.912-1.911l-1.318.016z" fill="#053868" class="color000 svgShape"></path><path fill-rule="evenodd" d="M8 5.5a.5.5 0 0 1 .5.5v2a.5.5 0 0 1-.5.5H6a.5.5 0 0 1 0-1h1.5V6a.5.5 0 0 1 .5-.5z" fill="#053868" class="color000 svgShape"></path><path fill-rule="evenodd" d="M7.5 8a.5.5 0 0 1 .5-.5h2a.5.5 0 0 1 0 1H8.5V10a.5.5 0 0 1-1 0V8z" fill="#053868" class="color000 svgShape"></path></svg></g></svg>