<svg id="SvgjsSvg1025" width="288" height="288" xmlns="http://www.w3.org/2000/svg" version="1.1" xmlns:xlink="http://www.w3.org/1999/xlink" xmlns:svgjs="http://svgjs.com/svgjs"><defs id="SvgjsDefs1026"></defs><g id="SvgjsG1027"><svg xmlns="http://www.w3.org/2000/svg" width="288" height="288" fill="currentColor" class="bi bi-file-person" viewBox="0 0 16 16"><path fill-rule="evenodd" d="M4 1h8a2 2 0 0 1 2 2v10a2 2 0 0 1-2 2H4a2 2 0 0 1-2-2V3a2 2 0 0 1 2-2zm0 1a1 1 0 0 0-1 1v10a1 1 0 0 0 1 1h8a1 1 0 0 0 1-1V3a1 1 0 0 0-1-1H4z" fill="#053868" class="color000 svgShape"></path><path d="M13.784 14c-.497-1.27-1.988-3-5.784-3s-5.287 1.73-5.784 3h11.568z" fill="#053868" class="color000 svgShape"></path><path fill-rule="evenodd" d="M8 10a3 3 0 1 0 0-6 3 3 0 0 0 0 6z" fill="#053868" class="color000 svgShape"></path></svg></g></svg>